<?xml version="1.0" encoding="utf-8"?>
<!-- Svg Vector Icons : http://www.onlinewebfonts.com/icon -->
<!DOCTYPE svg PUBLIC "-//W3C//DTD SVG 1.1//EN" "http://www.w3.org/Graphics/SVG/1.1/DTD/svg11.dtd">
<svg version="1.1" xmlns="http://www.w3.org/2000/svg" xmlns:xlink="http://www.w3.org/1999/xlink" x="0px" y="0px" viewBox="0 0 256 256" enable-background="new 0 0 256 256" xml:space="preserve">
<metadata> Svg Vector Icons : http://www.onlinewebfonts.com/icon </metadata>
<g><g><path fill="#000000" d="M68.8,116c-2.3-0.7-5.6-0.6-10.2,1c-4.5,1.6-8.7,4.2-10.4,7.2c-0.3,0.6-0.6,1.1-0.8,1.7c0,0.1-0.1,0.2-0.1,0.3c-0.2,0.5-0.4,1.1-0.5,1.6c0,0.1,0,0.2-0.1,0.3c-0.1,0.6-0.2,1.1-0.3,1.6c0,0,0,0.1,0,0.1c0,0.5,0,1.1,0,1.6c0,0.1,0,0.2,0,0.3c0,0.5,0.1,1.1,0.1,1.6c0,0.1,0,0.2,0,0.3c0.1,0.5,0.2,1.1,0.3,1.6c0,0.1,0,0.1,0,0.2c0.1,0.5,0.3,1,0.4,1.5c0,0.1,0,0.1,0.1,0.2c0.2,0.5,0.4,1.1,0.6,1.6c0,0.1,0.1,0.2,0.1,0.4c0.2,0.5,0.4,1,0.6,1.5c0,0.1,0.1,0.2,0.1,0.3c0.2,0.5,0.4,1,0.7,1.4c0,0.1,0.1,0.1,0.1,0.2c0.2,0.5,0.5,1,0.8,1.5c0.1,0.1,0.2,0.3,0.2,0.5c0.2,0.5,0.5,0.9,0.7,1.4c0.1,0.2,0.3,0.5,0.4,0.7c0.1,0.2,0.2,0.4,0.3,0.6c0.8,1.4,1.5,2.7,2.2,4.1c0,0,0,0,0,0c0.3,0.6,0.6,1.1,0.9,1.7l0,0c0,0,0,0,0,0c0.1,0.1,0.1,0.3,0.2,0.4c0,0,0,0.1,0.1,0.1c0.4,0.9,0.9,2.6-0.1,4.1l0,0c-1.1,1-1.8,2.3-1.8,3.8c0,1.8,1,3.3,2.5,4.3c-0.6,2.4-0.9,4.8-0.9,7.3c0,10.9,5.6,19.3,12.5,28c0.2,0.4,0.7,1,1.6,1.9c0.2,7.5,3,13.5,6.4,13.5c1.7,0,4.9-1.5,6.1-4c2,1.6,3.9,3,5.4,4c8.5,5,13.5,7,24.3,8.7c1.6,1.2,3.2,3,4,5.5c2,5.9,5.9,14.3,5.9,14.3s6.8,2.7,9.4-1.3c2.7-4,6.1-13.3,6.1-13.3s1.7-2.8,4.2-4.7c12.3-1.5,20.2-3.7,29.7-9.2c1.2-0.8,2.4-1.6,3.4-2.4c1,1.5,2.2,2.4,3.5,2.4c2.8,0,5.3-4.2,6.1-10c2.9-2.6,6-6.1,6.4-7c6.9-8.7,10.9-15.4,10.9-26.3c0-2.6-0.3-5.2-0.9-7.8c1.1-1,1.8-2.3,1.8-3.8c0-1.5-0.7-2.8-1.8-3.8l0,0c-1.1-1.5-0.5-3.2-0.1-4.1c0.1-0.2,0.2-0.4,0.3-0.5l0,0l0,0c4.5-8.9,12.5-19.2,7.2-28.9c-1.7-3.1-5.8-5.6-10.4-7.2c-4.1-1.4-9.4-1.2-9.4-1.2S136.4,141.8,68.8,116z M67.7,139.4c-0.6,3.8-2.2,7-2.2,7s-0.9-3.5-1.8-7.2c-0.8-3.7-0.5-6.1-0.5-6.1s1.1-4.1,3.4-1.9C67.7,132.3,68.2,136.1,67.7,139.4z M194.2,139.2c-0.8,3.7-1.8,7.2-1.8,7.2s-1.6-3.2-2.2-7c-0.5-3.3,0-7.2,1-8.2c2.3-2.2,3.4,1.9,3.4,1.9S195,135.5,194.2,139.2z"/><path fill="#000000" d="M62.9,155.2c0,0,13.8-29.2,11.8-17.6"/><path fill="#000000" d="M69.5,196.8c0,0,3.9,4.1,7.4,7.1c3.3,2.8,7.3,5.6,10.8,7.4l-12.4,1.5l-5.4-9.9L69.5,196.8z"/><path fill="#000000" d="M184.7,200.6c0,0-4.3,3.6-8.1,6.2c-3.6,2.5-7.9,4.8-11.5,6.3l12.2,2.8l6.5-9.3L184.7,200.6z"/><path fill="#000000" d="M126.7,131.3c-1.2,0-2.2-0.4-2.2-0.8V10.8c0-0.5,1-0.8,2.2-0.8c1.2,0,2.2,0.4,2.2,0.8v119.7C129,131,128,131.3,126.7,131.3L126.7,131.3z"/><path fill="#000000" d="M151.3,133.4c-1.2,0-2.2-0.4-2.2-0.8V12.9c0-0.5,1-0.8,2.2-0.8s2.2,0.4,2.2,0.8v119.7C153.5,133.1,152.5,133.4,151.3,133.4L151.3,133.4z"/><path fill="#000000" d="M99.7,133.4c-1.2,0-2.2-0.4-2.2-0.8V12.9c0-0.5,1-0.8,2.2-0.8c1.2,0,2.2,0.4,2.2,0.8v119.7C101.9,133.1,100.9,133.4,99.7,133.4L99.7,133.4z"/><path fill="#000000" d="M154,115.6"/><path fill="#000000" d="M66.3,117c0,0,60.1-46.2,130.7,1.4c-6.8-3.1-15.7,3.7-21.9,1.5c-56-23.4-89.9,3.3-89.9,3.3"/><path fill="#000000" d="M199.5,118.4c-6.8-3.1-11.4,6.8-21.9,1.5"/></g></g>
</svg>